<svg xmlns="http://www.w3.org/2000/svg" viewBox="0 0 1600 900" width="1600" height="900" role="img" aria-labelledby="t d"><title id="t">Schulweg</title><desc id="d">Neutrales redaktionelles Symbolbild für Schule / Bildung: Schulweg. Gezeichnete Symbolgrafik, kein Foto eines konkreten Ereignisses.</desc><rect width="1600" height="900" fill="#ffffff"/><g stroke="#2b2926" stroke-width="14" stroke-linecap="round" stroke-linejoin="round" fill="#ffffff"><rect x="0" y="700" width="1600" height="200" fill="#f3f1ec" stroke="none"/><line x1="0" y1="700" x2="1600" y2="700" /><g transform="translate(800 700) scale(1.6)" stroke-width="8.75" data-form="zebrastreifen"><polygon points="-260,0 -180,0 -140,-90 -220,-90" fill="#ffffff"/><polygon points="-160,0 -80,0 -40,-90 -120,-90" fill="#ffffff"/><polygon points="-60,0 20,0 60,-90 -20,-90" fill="#ffffff"/><polygon points="40,0 120,0 160,-90 80,-90" fill="#ffffff"/><polygon points="140,0 220,0 260,-90 180,-90" fill="#ffffff"/></g><g transform="translate(1300 700) scale(1.2)" stroke-width="11.67" data-form="dreieckschild"><line x1="0" y1="0" x2="0" y2="-200" /><polygon points="-120,-200 120,-200 0,-400" fill="#ffffff"/><polygon points="-80,-225 80,-225 0,-360" fill="#971725"/><polygon points="-40,-245 40,-245 0,-320" fill="#ffffff"/></g><g transform="translate(600 700) scale(1.5)" stroke-width="9.33" data-form="personKind"><circle cx="0" cy="-150" r="30" fill="#2b2926"/><path d="M-38 -115 Q0 -135 38 -115 L40 -40 L22 -40 L22 0 L-22 0 L-22 -40 L-40 -40 Z" fill="#2b2926"/></g></g><text x="1540" y="862" text-anchor="end" font-family="Inter,Arial,sans-serif" font-size="26" letter-spacing="3" fill="#615d55" stroke="none">SYMBOLBILD</text></svg>
