<svg xmlns="http://www.w3.org/2000/svg" viewBox="0 0 1600 900" width="1600" height="900" role="img" aria-labelledby="t d"><title id="t">Löschangriff</title><desc id="d">Neutrales redaktionelles Symbolbild für Feuerwehr: Löschangriff. Gezeichnete Symbolgrafik, kein Foto eines konkreten Ereignisses.</desc><rect width="1600" height="900" fill="#ffffff"/><g stroke="#2b2926" stroke-width="14" stroke-linecap="round" stroke-linejoin="round" fill="#ffffff"><rect x="0" y="700" width="1600" height="200" fill="#f3f1ec" stroke="none"/><line x1="0" y1="700" x2="1600" y2="700" /><g transform="translate(500 700) scale(1.6)" stroke-width="8.75" data-form="personHelm"><path d="M-50 -240 A50 50 0 0 1 50 -240 L60 -240 L60 -228 L-60 -228 L-60 -240 Z" fill="#2b2926"/><circle cx="0" cy="-240" r="36" fill="#2b2926"/><path d="M-55 -200 Q0 -230 55 -200 L60 -60 L35 -60 L35 0 L-35 0 L-35 -60 L-60 -60 Z" fill="#2b2926"/><line x1="-30" y1="-150" x2="30" y2="-150" stroke="#ffffff"/></g><g transform="translate(700 600) scale(1.6)" stroke-width="8.75" data-form="strahlrohr"><rect x="-150" y="-50" width="200" height="40" rx="8" fill="#ffffff"/><polygon points="50,-70 130,-90 130,-10 50,-30" fill="#ffffff"/><path d="M150 -50 Q220 -90 300 -70 M150 -40 Q230 -30 300 -20" fill="none" stroke-width="8.4"/></g><g transform="translate(1150 700) scale(2)" stroke-width="7.00" data-form="flamme"><path d="M0 0 Q-90 -60 -70 -160 Q-50 -110 -30 -130 Q-40 -220 20 -280 Q10 -200 50 -170 Q70 -120 60 -90 Q100 -110 90 -50 Q90 0 0 0 Z" fill="#ffffff"/><path d="M0 0 Q-40 -40 -30 -90 Q-10 -70 0 -100 Q10 -60 30 -80 Q50 -30 0 0 Z" fill="#971725"/></g></g><text x="1540" y="862" text-anchor="end" font-family="Inter,Arial,sans-serif" font-size="26" letter-spacing="3" fill="#615d55" stroke="none">SYMBOLBILD</text></svg>
