<svg xmlns="http://www.w3.org/2000/svg" viewBox="0 0 1600 900" width="1600" height="900" role="img" aria-labelledby="t d"><title id="t">Feuerwehrgruppe in Bereitschaft</title><desc id="d">Neutrales redaktionelles Symbolbild für Feuerwehr: Feuerwehrgruppe in Bereitschaft. Gezeichnete Symbolgrafik, kein Foto eines konkreten Ereignisses.</desc><rect width="1600" height="900" fill="#ffffff"/><g stroke="#2b2926" stroke-width="14" stroke-linecap="round" stroke-linejoin="round" fill="#ffffff"><rect x="0" y="700" width="1600" height="200" fill="#f3f1ec" stroke="none"/><line x1="0" y1="700" x2="1600" y2="700" /><g transform="translate(500 700) scale(1.4)" stroke-width="10.00" data-form="helm"><path d="M-110 0 A110 110 0 0 1 110 0 Z" fill="#ffffff"/><rect x="-140" y="-10" width="280" height="24" fill="#ffffff"/><path d="M-40 -110 L-10 -50 L10 -50 L40 -110" fill="#971725"/></g><g transform="translate(700 700) scale(1.4)" stroke-width="10.00" data-form="helm"><path d="M-110 0 A110 110 0 0 1 110 0 Z" fill="#ffffff"/><rect x="-140" y="-10" width="280" height="24" fill="#ffffff"/><path d="M-40 -110 L-10 -50 L10 -50 L40 -110" fill="#971725"/></g><g transform="translate(900 700) scale(1.4)" stroke-width="10.00" data-form="helm"><path d="M-110 0 A110 110 0 0 1 110 0 Z" fill="#ffffff"/><rect x="-140" y="-10" width="280" height="24" fill="#ffffff"/><path d="M-40 -110 L-10 -50 L10 -50 L40 -110" fill="#971725"/></g><g transform="translate(1100 700) scale(1.4)" stroke-width="10.00" data-form="helm"><path d="M-110 0 A110 110 0 0 1 110 0 Z" fill="#ffffff"/><rect x="-140" y="-10" width="280" height="24" fill="#ffffff"/><path d="M-40 -110 L-10 -50 L10 -50 L40 -110" fill="#971725"/></g></g><text x="1540" y="862" text-anchor="end" font-family="Inter,Arial,sans-serif" font-size="26" letter-spacing="3" fill="#615d55" stroke="none">SYMBOLBILD</text></svg>
