<svg xmlns="http://www.w3.org/2000/svg" viewBox="0 0 1600 900" width="1600" height="900" role="img" aria-labelledby="t d"><title id="t">Musikinstrument</title><desc id="d">Neutrales redaktionelles Symbolbild für Kultur / Freizeit: Musikinstrument. Gezeichnete Symbolgrafik, kein Foto eines konkreten Ereignisses.</desc><rect width="1600" height="900" fill="#ffffff"/><g stroke="#2b2926" stroke-width="14" stroke-linecap="round" stroke-linejoin="round" fill="#ffffff"><rect x="0" y="700" width="1600" height="200" fill="#f3f1ec" stroke="none"/><line x1="0" y1="700" x2="1600" y2="700" /><line x1="0" y1="660" x2="1600" y2="660" stroke-width="8.4"/><g transform="translate(800 700) scale(1.8)" stroke-width="7.78" data-form="geige"><path d="M-60 -40 Q-120 -80 -100 -140 Q-90 -180 -60 -190 Q-100 -230 -70 -290 Q0 -330 70 -290 Q100 -230 60 -190 Q90 -180 100 -140 Q120 -80 60 -40 Q0 0 -60 -40 Z" fill="#ffffff"/><line x1="0" y1="-290" x2="0" y2="-420" stroke-width="18"/><rect x="-14" y="-440" width="28" height="30" fill="#ffffff"/><path d="M-20 -170 L-20 -120 M20 -170 L20 -120" fill="none" stroke-width="8.4"/><line x1="-8" y1="-300" x2="-8" y2="-60" stroke-width="8.4"/><line x1="8" y1="-300" x2="8" y2="-60" stroke-width="8.4"/></g></g><text x="1540" y="862" text-anchor="end" font-family="Inter,Arial,sans-serif" font-size="26" letter-spacing="3" fill="#615d55" stroke="none">SYMBOLBILD</text></svg>
