<svg xmlns="http://www.w3.org/2000/svg" viewBox="0 0 1600 900" width="1600" height="900" role="img" aria-labelledby="t d"><title id="t">Literatur</title><desc id="d">Neutrales redaktionelles Symbolbild für Kultur / Freizeit: Literatur. Gezeichnete Symbolgrafik, kein Foto eines konkreten Ereignisses.</desc><rect width="1600" height="900" fill="#ffffff"/><g stroke="#2b2926" stroke-width="14" stroke-linecap="round" stroke-linejoin="round" fill="#ffffff"><rect x="0" y="700" width="1600" height="200" fill="#f3f1ec" stroke="none"/><line x1="0" y1="700" x2="1600" y2="700" /><line x1="0" y1="660" x2="1600" y2="660" stroke-width="8.4"/><g transform="translate(750 700) scale(1.8)" stroke-width="7.78" data-form="buchOffen"><path d="M-240 -20 L-240 -200 Q-120 -230 0 -180 Q120 -230 240 -200 L240 -20 Q120 -50 0 0 Q-120 -50 -240 -20 Z" fill="#ffffff"/><line x1="0" y1="-180" x2="0" y2="0" /><line x1="-200" y1="-160" x2="-40" y2="-150" stroke-width="8.4"/><line x1="-200" y1="-120" x2="-40" y2="-110" stroke-width="8.4"/><line x1="40" y1="-150" x2="200" y2="-160" stroke-width="8.4"/><line x1="40" y1="-110" x2="200" y2="-120" stroke-width="8.4"/></g><g transform="translate(1200 550) scale(1)" stroke-width="14.00" data-form="stift"><path d="M-200 120 L120 -200 L170 -150 L-150 170 Z" fill="#ffffff"/><path d="M-200 120 L-230 200 L-150 170 Z" fill="#2b2926"/><line x1="120" y1="-200" x2="170" y2="-150" /><line x1="90" y1="-170" x2="140" y2="-120" stroke-width="8.4"/></g></g><text x="1540" y="862" text-anchor="end" font-family="Inter,Arial,sans-serif" font-size="26" letter-spacing="3" fill="#615d55" stroke="none">SYMBOLBILD</text></svg>
