<svg xmlns="http://www.w3.org/2000/svg" viewBox="0 0 1600 900" width="1600" height="900" role="img" aria-labelledby="t d"><title id="t">Fußballspiel</title><desc id="d">Redaktionelles Symbolbild für Sport / Fußball: Fußballspiel. Kein Foto eines konkreten Ereignisses.</desc><defs><linearGradient id="g" x1="0" y1="0" x2=".35" y2="1"><stop stop-color="#143b2d"/><stop offset="1" stop-color="#d6b56d" stop-opacity=".55"/></linearGradient></defs><rect width="1600" height="900" fill="url(#g)"/><g transform="translate(0,-24)">
    <rect x="200" y="210" width="1200" height="500" rx="10" fill="none" stroke="#f5f4ef" stroke-width="14"/>
    <line x1="800" y1="210" x2="800" y2="710" stroke="#f5f4ef" stroke-width="10"/>
    <circle cx="800" cy="460" r="104" fill="none" stroke="#f5f4ef" stroke-width="10"/>
    <g fill="#f5f4ef">
      <circle cx="470" cy="386" r="34"/><path d="M470 428 c-34 0 -56 22 -60 56 l-10 78h28l10-62h6l-8 132h30l14-108h6l14 108h30l-8-132h6l10 62h28l-10-78c-4-34-26-56-60-56z"/>
      <circle cx="1130" cy="540" r="34" opacity=".72"/><path d="M1130 582 c-34 0 -56 22 -60 56l-10 78h28l10-62h6l-8 132h30l14-108h6l14 108h30l-8-132h6l10 62h28l-10-78c-4-34-26-56-60-56z" opacity=".72"/>
    </g>
    <circle cx="800" cy="460" r="40" fill="#f5f4ef"/>
    <path d="M800 436 l19 14 -8 23h-22l-8-23z" fill="#143b2d"/></g><rect x="115" y="120" width="185" height="42" rx="21" fill="#f5f4ef" opacity=".92"/><text x="207" y="148" text-anchor="middle" font-family="Arial,sans-serif" font-size="20" font-weight="700" fill="#143b2d">SYMBOLBILD</text><text x="1480" y="838" text-anchor="end" font-family="Arial,sans-serif" font-size="22" font-weight="700" letter-spacing="2" fill="#f5f4ef" opacity=".72">SPORT / FUSSBALL · FUSSBALLSPIEL</text></svg>
