<svg xmlns="http://www.w3.org/2000/svg" viewBox="0 0 1600 900" width="1600" height="900" role="img" aria-labelledby="t d"><title id="t">Verkauf</title><desc id="d">Neutrales redaktionelles Symbolbild für Jobs / Arbeit: Verkauf. Gezeichnete Symbolgrafik, kein Foto eines konkreten Ereignisses.</desc><rect width="1600" height="900" fill="#ffffff"/><g stroke="#2b2926" stroke-width="14" stroke-linecap="round" stroke-linejoin="round" fill="#ffffff"><rect x="0" y="700" width="1600" height="200" fill="#f3f1ec" stroke="none"/><line x1="0" y1="700" x2="1600" y2="700" /><line x1="0" y1="660" x2="1600" y2="660" stroke-width="8.4"/><g transform="translate(700 700) scale(1.8)" stroke-width="7.78" data-form="kasse"><rect x="-160" y="-140" width="320" height="140" fill="#ffffff"/><path d="M-120 -140 L-100 -240 L100 -240 L120 -140 Z" fill="#ffffff"/><rect x="-60" y="-220" width="120" height="40" fill="#e9e6df"/><rect x="-100" y="-110" width="34" height="24" fill="#e9e6df"/><rect x="-50" y="-110" width="34" height="24" fill="#e9e6df"/><rect x="0" y="-110" width="34" height="24" fill="#e9e6df"/><rect x="-100" y="-70" width="34" height="24" fill="#e9e6df"/><rect x="-50" y="-70" width="34" height="24" fill="#e9e6df"/><rect x="0" y="-70" width="34" height="24" fill="#e9e6df"/><rect x="60" y="-110" width="60" height="64" fill="#971725"/></g><g transform="translate(1150 700) scale(1.4)" stroke-width="10.00" data-form="einkaufstasche"><path d="M-120 -200 L120 -200 L140 0 L-140 0 Z" fill="#ffffff"/><path d="M-60 -200 A60 60 0 0 1 60 -200" fill="none"/><rect x="-40" y="-140" width="80" height="40" fill="#971725"/></g></g><text x="1540" y="862" text-anchor="end" font-family="Inter,Arial,sans-serif" font-size="26" letter-spacing="3" fill="#615d55" stroke="none">SYMBOLBILD</text></svg>
